<svg xmlns="http://www.w3.org/2000/svg" xmlns:xlink="http://www.w3.org/1999/xlink" id="Capa_1" x="0" y="0" enable-background="new 0 0 342 513" version="1.1" viewBox="0 0 342 513" xml:space="preserve"><path fill="#495162" d="M302.3,352.6c-33.3-12-54.1-23-66.1-37c19.1-0.8,62.4-5.2,85.9-29.2c0,0-44.6-12.6-36.6-93.9	c8-81.2-10-152.5-75.3-146.5c0,0-28.3-34.1-84.6-12.6C106.3,40.8,54.4,59.3,57,171.9c2.6,112.5-40,113.2-40,113.2s20.3,29.5,88,31.2	c-12.1,13.7-32.7,24.5-65.5,36.3c-15.2,5.5-28.2,11-39.3,16.4l-0.3,142.6h170.8h0.3h170.9l0.2-142.3	C330.9,363.8,317.7,358.2,302.3,352.6z"/></svg>