<svg xmlns="http://www.w3.org/2000/svg" xmlns:xlink="http://www.w3.org/1999/xlink" id="Capa_1" x="0" y="0" enable-background="new 0 0 342 513" version="1.1" viewBox="0 0 342 513" xml:space="preserve"><path fill="#495162" d="M302.5,354.1c-60.4-21.8-79.7-40.2-79.7-79.5c0-4.3,0.6-7.6,1.7-10.4c4.7-12.2,18.2-13.5,24.9-48.8	c3.4-18,19.7-0.3,22.8-41.3c0-16.3-8.9-20.4-8.9-20.4s4.5-24.2,6.3-42.8c2.2-23.2-13.5-83.1-97.4-83.1c-0.4,0-0.7,0-1.1,0	c-0.4,0-0.7,0-1.1,0c-83.9,0-99.6,59.9-97.4,83.1c1.8,18.6,6.3,42.8,6.3,42.8s-8.9,4.1-8.9,20.4c3.1,41,19.4,23.3,22.8,41.3	c6.6,35.3,20.1,36.7,24.9,48.8c1.1,2.7,1.7,6,1.7,10.4c0,39.4-19.3,57.8-79.7,79.5c-15.2,5.5-28.2,11-39.3,16.4L0.1,513.1h170.8h0.3	h170.9l0.2-142.3C331.1,365.3,317.9,359.7,302.5,354.1z"/></svg>