<svg xmlns="http://www.w3.org/2000/svg" xmlns:xlink="http://www.w3.org/1999/xlink" width="500" height="750" x="0" y="0" version="1.1" viewBox="0 0 500 750" xml:space="preserve"><g><rect width="311" height="180" x="95" y="285" fill="none"/><path fill="#DC2D43" d="M198.6,338v-51.3h9.9l25.5,31.8l-2.2,1.7v-33.5h12.7V338h-10l-25.3-31.6l2-1.9V338H198.6z"/><path fill="#DC2D43" d="M278.1,338.6c-5.3,0-9.9-1.1-13.7-3.2c-3.9-2.2-6.8-5.2-8.9-9.1c-2.1-3.9-3.1-8.6-3.1-14 c0-5.3,1.1-10,3.2-13.9c2.1-3.9,5.1-7,8.9-9.1c3.8-2.1,8.4-3.2,13.7-3.2s9.8,1.1,13.6,3.2c3.8,2.1,6.8,5.2,8.9,9.1 c2.1,3.9,3.1,8.6,3.1,13.9c0,5.4-1,10-3.1,14c-2.1,3.9-5,7-8.9,9.1C287.9,337.6,283.4,338.6,278.1,338.6z M278.1,328.3 c3.7,0,6.7-1.3,9-4c2.2-2.7,3.3-6.7,3.3-12c0-5.3-1.1-9.3-3.3-11.9c-2.2-2.7-5.2-4-9-4c-3.7,0-6.7,1.3-8.9,4 c-2.2,2.6-3.3,6.6-3.3,12c0,5.4,1.1,9.4,3.3,12.1C271.4,327,274.4,328.3,278.1,328.3z"/><path fill="#DC2D43" d="M137.3,398v-51.3h13.5V398H137.3z"/><path fill="#DC2D43" d="M160.2,398v-51.3h10.6l17.6,40.1h-4.5l17.5-40.1h10.5V398h-11.8l-0.1-30.8l2.7,0.8l-12.5,30h-8.6l-12.7-30 l2.9-0.8V398H160.2z"/><path fill="#DC2D43" d="M228.6,398h-13.5l24-51.3h10.7l24,51.3h-13.3l-17.4-40.4h3L228.6,398z M226.2,387.4l5.3-10.2h25.1l5.2,10.2 H226.2z"/><path fill="#DC2D43" d="M301.3,398.6c-5.6,0-10.5-1.1-14.5-3.2c-4.1-2.1-7.2-5.1-9.4-9.1c-2.2-3.9-3.3-8.6-3.3-14.1 c0-5.3,1.1-10,3.3-13.9c2.2-3.9,5.3-7,9.3-9.1c4-2.1,8.7-3.2,14.1-3.2c3.7,0,7.2,0.5,10.5,1.4c3.3,1,6,2.3,8,4l-4.2,9.6 c-2.4-1.5-4.7-2.7-6.8-3.3c-2.2-0.7-4.5-1-7-1c-4.6,0-8,1.3-10.2,3.9c-2.2,2.6-3.3,6.5-3.3,11.8c0,5.5,1.2,9.5,3.5,12.2 c2.3,2.6,5.9,4,10.8,4c1.5,0,3.1-0.1,4.8-0.4s3.3-0.6,5-1.2l-3,3.9v-12.6h-8.9V369h21.1v25.7c-1.8,0.9-3.8,1.6-5.9,2.2 c-2.1,0.6-4.4,1-6.7,1.3C306,398.5,303.6,398.6,301.3,398.6z"/><path fill="#DC2D43" d="M329.4,398v-51.3H366v10.4h-23.4v9.6h21.9v10.4h-21.9v10.5H366V398H329.4z"/><path fill="#DC2D43" d="M122.4,458v-51.3h35.8v10.6h-22.5v9.4h21v10.5h-21V458H122.4z"/><path fill="#DC2D43" d="M188.7,458.6c-5.3,0-9.9-1.1-13.7-3.2c-3.9-2.2-6.8-5.2-8.9-9.1c-2.1-3.9-3.1-8.6-3.1-14 c0-5.3,1.1-10,3.2-13.9c2.1-3.9,5.1-7,8.9-9.1c3.8-2.1,8.4-3.2,13.7-3.2c5.3,0,9.8,1.1,13.6,3.2c3.8,2.1,6.8,5.2,8.9,9.1 s3.1,8.6,3.1,13.9c0,5.4-1,10-3.1,14c-2.1,3.9-5,7-8.9,9.1S194,458.6,188.7,458.6z M188.7,448.3c3.7,0,6.7-1.3,9-4 c2.2-2.7,3.3-6.7,3.3-12c0-5.3-1.1-9.3-3.3-11.9s-5.2-4-9-4c-3.7,0-6.7,1.3-8.9,4c-2.2,2.6-3.3,6.6-3.3,12c0,5.4,1.1,9.4,3.3,12.1 C182,447,185,448.3,188.7,448.3z"/><path fill="#DC2D43" d="M244.8,458.6c-7.5,0-13.2-1.9-17-5.7c-3.8-3.8-5.8-9.3-5.8-16.6v-29.7h13.2v30.2c0,3.6,0.8,6.5,2.4,8.5 c1.6,2,4,3,7.1,3c3,0,5.4-1,7-3c1.6-2,2.4-4.8,2.4-8.5v-30.2h13.3v29.7c0,7.2-2,12.7-5.9,16.5C257.8,456.7,252.2,458.6,244.8,458.6 z"/><path fill="#DC2D43" d="M276.4,458v-51.3h9.9l25.5,31.8l-2.2,1.7v-33.5h12.7V458h-10L287,426.4l2-1.9V458H276.4z"/><path fill="#DC2D43" d="M331.6,458v-51.3h21c5.7,0,10.6,1,14.7,3.1c4.1,2,7.2,5,9.4,8.8c2.2,3.8,3.3,8.4,3.3,13.7 c0,5.4-1.1,10-3.2,13.8c-2.2,3.8-5.3,6.8-9.4,8.8c-4.1,2-9,3.1-14.8,3.1H331.6z M345.1,447.2h6.5c5,0,8.7-1.2,11.2-3.7 c2.5-2.5,3.7-6.2,3.7-11.2c0-9.8-5-14.8-14.9-14.8h-6.5V447.2z"/></g></svg>