<?xml version="1.0" encoding="utf-8"?>
<svg version="1.1" baseProfile="tiny" id="Layer_1" xmlns="http://www.w3.org/2000/svg" xmlns:xlink="http://www.w3.org/1999/xlink"
	 x="0px" y="0px" viewBox="0 0 740.4 362.2" xml:space="preserve">
<g>
	<path fill="#E6B91E" d="M698.1,0H42.3C19,0,0,19,0,42.3v277.6c0,23.3,19,42.3,42.3,42.3h655.8c23.3,0,42.3-19,42.3-42.3V42.3
		C740.4,19,721.4,0,698.1,0L698.1,0z"/>
	<rect x="106.6" y="76.7" fill-rule="evenodd" fill="#010101" width="54.8" height="211.3"/>
	<path fill-rule="evenodd" fill="#010101" d="M278.3,76.7l-12.7,98.7l-7.8-53.7c-2.4-17.2-4.5-32.3-6.6-45.1h-71.1V288h48l0.2-139.5
		L248.5,288h34.2L302,145.4l0.1,142.5H350V76.7H278.3z"/>
	<path fill-rule="evenodd" fill="#010101" d="M435.2,288c13.1,0,22.9-0.7,29.5-2.1c6.4-1.4,12-3.9,16.4-7.6c4.4-3.6,7.6-8.6,9.3-15
		c1.8-6.3,2.9-19,2.9-38v-74.1c0-20-0.8-33.4-1.9-40.2c-1.2-6.8-4.3-13-9.2-18.5c-4.8-5.5-12-9.5-21.3-12
		c-9.3-2.5-24.7-3.7-51.2-3.7h-40.9V288H435.2z M435.7,114.8c2.1,1.2,3.6,3.2,4.2,5.9c0.6,2.7,0.9,8.8,0.9,18.3v81.8
		c0,14.1-0.9,22.7-2.8,25.9c-1.8,3.2-6.6,4.7-14.5,4.7V112.9C429.5,112.9,433.6,113.5,435.7,114.8z"/>
	<path fill-rule="evenodd" fill="#010101" d="M511.9,76.7V288h49.4l3.5-13.4c4.4,5.4,9.3,9.4,14.7,12.2c5.4,2.7,13.4,4,19.7,4
		c8.6,0,16.2-2.3,22.4-6.9c6.4-4.5,10.4-9.9,12-16.1c1.7-6.2,2.6-15.7,2.6-28.3v-59.3c0-12.8-0.2-21.1-0.8-25c-0.5-3.9-2.3-7.9-5-12
		c-2.9-4.1-6.9-7.3-12.2-9.5c-5.4-2.3-11.7-3.4-19-3.4c-6.2,0-14.3,1.2-19.8,3.8c-5.3,2.5-10.2,6.2-14.6,11.3V76.7H511.9z
		 M583.3,236.8c0,10.1-0.5,16.7-1.5,19.4s-5.4,4-8.8,4c-3.3,0-5.4-1.2-6.5-3.9c-1-2.6-1.6-8.5-1.6-17.8v-55.8c0-9.6,0.5-15.6,1.4-18
		c1-2.4,3.2-3.6,6.3-3.6c3.4,0,7.9,1.4,9,4.1c1.1,2.8,1.7,8.6,1.7,17.5V236.8z"/>
</g>
</svg>
