<svg xmlns="http://www.w3.org/2000/svg" xmlns:xlink="http://www.w3.org/1999/xlink" id="Layer_1" x="0" y="0" baseProfile="tiny" version="1.1" viewBox="0 0 512 512" xml:space="preserve"><path fill="#C1272D" d="M401,512H111C50,512,0,462,0,401V111C0,50,50,0,111,0h290c61,0,111,50,111,111v290C512,462,462,512,401,512z"/><g><path fill="#FFF" d="M84.4,241V70.1h79.4c20.8,0,36.4,4.5,46.7,13.4c10.3,9,15.5,21.6,15.5,37.9c0,15.4-5.4,27.8-16.2,37.3 S184,173,164.8,173l20.6-4.3c5.8,0,11.1,1.8,16,5.4c4.9,3.6,8.7,8.9,11.4,16L233,241h-47.8l-22.1-56.9c-1.4-3.5-3.8-6-7.2-7.4 s-7-2.2-10.8-2.2h-16.3V241H84.4z M128.4,140.9h28.3c9.8,0,16.8-1.5,21-4.4c4.2-3,6.4-7.6,6.4-13.8c0-6.6-2.1-11.3-6.4-14.2 c-4.2-2.9-11.2-4.3-21-4.3h-28.3V140.9z"/><path fill="#FFF" d="M256.5,241V70.1h35.3l58.6,133.7h-14.9l58.3-133.7h35V241h-39.4l-0.2-102.7l9.1,2.6L356.8,241h-28.6 L286,140.9l9.6-2.6V241H256.5z"/><path fill="#FFF" d="M94.4,441V270.1h69.8c19,0,35.4,3.4,49,10.2c13.6,6.8,24,16.6,31.3,29.3c7.3,12.7,10.9,28,10.9,45.7 c0,17.9-3.6,33.3-10.8,46.1c-7.2,12.8-17.6,22.6-31.2,29.4c-13.6,6.8-30,10.2-49.2,10.2L94.4,441L94.4,441z M139.5,405h21.6 c16.6,0,29.1-4.1,37.3-12.4c8.2-8.2,12.4-20.7,12.4-37.3c0-32.8-16.6-49.2-49.7-49.2h-21.6V405z"/><path fill="#FFF" d="M281.8,441V270.1h83c17.8,0,32,4,42.6,12s16,18.8,16,32.4c0,9.3-2.6,17.4-7.8,24.4 c-5.2,7-12.6,11.8-22.2,14.5v-1.9c11.2,2.7,19.8,7.8,25.8,15.1c6,7.4,9,16.6,9,27.6c0,14.1-5.5,25.4-16.4,34 c-11,8.6-25.9,12.8-44.8,12.8H281.8z M325.8,337.1h31.4c8.3,0,14.4-1.3,18.2-3.8c3.8-2.6,5.8-6.6,5.8-12.2c0-5.9-2-10.2-5.9-12.8 c-3.9-2.6-10-4-18.1-4h-31.4V337.1z M325.8,406.9h36c8.6,0,14.8-1.4,18.6-4.1c3.8-2.7,5.6-7.3,5.6-13.7c0-6.4-1.8-11-5.5-13.8 s-9.9-4.2-18.7-4.2h-36V406.9z"/></g></svg>